<?xml version="1.0" encoding="UTF-8" standalone="no"?>
<!-- Created with Inkscape (http://www.inkscape.org/) -->

<svg
   width="173mm"
   height="34mm"
   viewBox="0 0 173 34"
   version="1.1"
   id="svg5"
   inkscape:version="1.2.2 (732a01da63, 2022-12-09)"
   sodipodi:docname="MyimaginationinCyclesEngine-2.svg"
   xmlns:inkscape="http://www.inkscape.org/namespaces/inkscape"
   xmlns:sodipodi="http://sodipodi.sourceforge.net/DTD/sodipodi-0.dtd"
   xmlns="http://www.w3.org/2000/svg"
   xmlns:svg="http://www.w3.org/2000/svg">
  <sodipodi:namedview
     id="namedview7"
     pagecolor="#ffffff"
     bordercolor="#666666"
     borderopacity="1.0"
     inkscape:showpageshadow="2"
     inkscape:pageopacity="0.0"
     inkscape:pagecheckerboard="0"
     inkscape:deskcolor="#d1d1d1"
     inkscape:document-units="mm"
     showgrid="false"
     inkscape:zoom="1.0544998"
     inkscape:cx="339.49747"
     inkscape:cy="134.18685"
     inkscape:window-width="1488"
     inkscape:window-height="1040"
     inkscape:window-x="248"
     inkscape:window-y="80"
     inkscape:window-maximized="0"
     inkscape:current-layer="layer1" />
  <defs
     id="defs2">
    <rect
       x="33.528069"
       y="69.73838"
       width="685.31366"
       height="177.02818"
       id="rect236" />
  </defs>
  <g
     inkscape:label="Слой 1"
     inkscape:groupmode="layer"
     id="layer1">
    <rect
       style="display:none;fill:#ff0000;fill-rule:evenodd;stroke:#ffffff;stroke-width:2;stroke-linecap:round;stroke-linejoin:round;paint-order:markers stroke fill"
       id="rect497"
       width="199.41936"
       height="76.290321"
       x="-0.3548387"
       y="0.7096774"
       rx="2.6612952"
       ry="3.1048374" />
    <g
       aria-label="My imagination in Cycles Engine"
       transform="matrix(0.27416078,0,0,0.26458333,-3.3244229,-16.681746)"
       id="text234"
       style="font-size:40px;line-height:1.25;white-space:pre;shape-inside:url(#rect236);display:inline;stroke-width:0.982378;fill:#000000;fill-opacity:1">
      <path
         d="M 62.199662,106.13329 V 93.194725 l -9.595861,12.535135 q -0.662777,0.83567 -1.930699,0.83567 -1.267922,0 -1.930699,-0.83567 L 39.175358,93.194725 V 106.13329 H 35.198695 V 87.834874 q 0,-0.922125 0.662777,-1.354371 0.691594,-0.432246 1.700168,-0.432246 0.778043,0 1.239105,0.230532 0.461062,0.201714 0.835676,0.691593 L 50.730735,101.69556 61.911498,86.970382 q 0.374613,-0.489879 0.778043,-0.691593 0.432246,-0.230532 1.181473,-0.230532 1.008574,0 1.671351,0.432246 0.691593,0.432246 0.691593,1.354371 v 18.298416 z"
         style="font-size:28.8164px;font-family:Neuropolitical;-inkscape-font-specification:'Neuropolitical, Normal';fill:#000000;fill-opacity:1"
         id="path1133" />
      <path
         d="m 73.783838,98.641024 q 0,1.296738 0.547512,1.815436 0.576328,0.48988 1.901882,0.48988 h 9.595862 V 90.5148 h 4.178378 v 15.33032 q 0,2.6223 -1.296738,3.77495 -1.296738,1.18148 -4.236011,1.18148 h -6.253159 v -3.51561 h 5.878546 q 0.893308,0 1.296738,-0.34579 0.432246,-0.3458 0.432246,-1.32556 v -1.26792 h -9.855209 q -1.757801,0 -2.996906,-0.31698 -1.210289,-0.3458 -1.988331,-1.03739 -0.749227,-0.69159 -1.095024,-1.72898 -0.345796,-1.03739 -0.345796,-2.449397 V 90.5148 h 4.23601 z"
         style="font-size:28.8164px;font-family:Neuropolitical;-inkscape-font-specification:'Neuropolitical, Normal';fill:#000000;fill-opacity:1"
         id="path1135" />
      <path
         d="M 104.87669,106.13329 V 90.918229 h 4.38009 v 15.215061 z m 1.46964,-16.511799 q -0.80686,0 -1.15266,-0.31698 -0.31698,-0.316981 -0.31698,-1.008574 v -1.671352 q 0,-0.691593 0.31698,-0.979757 0.3458,-0.316981 1.15266,-0.316981 h 1.412 q 0.83567,0 1.15266,0.316981 0.34579,0.288164 0.34579,0.979757 v 1.671352 q 0,0.691593 -0.34579,1.008574 -0.31699,0.31698 -1.15266,0.31698 z"
         style="font-size:28.8164px;font-family:Neuropolitical;-inkscape-font-specification:'Neuropolitical, Normal';fill:#000000;fill-opacity:1"
         id="path1137" />
      <path
         d="m 137.2087,106.13329 v -9.394148 q 0,-1.469636 -0.57632,-1.988332 -0.54752,-0.547511 -1.78662,-0.547511 h -2.79519 q -0.95094,0 -1.5849,0.144082 -0.60515,0.115265 -0.97976,0.432246 -0.3458,0.288164 -0.48988,0.778043 -0.14408,0.461062 -0.14408,1.181472 v 9.394148 H 125.077 v -9.394148 q 0,-0.72041 -0.14408,-1.181472 -0.11527,-0.489879 -0.48988,-0.778043 -0.3458,-0.316981 -0.97976,-0.432246 -0.63396,-0.144082 -1.61372,-0.144082 H 119.112 q -1.29673,0 -1.84425,0.547511 -0.51869,0.518696 -0.51869,1.988332 v 9.394148 h -4.17838 V 96.105181 q 0,-1.44082 0.28817,-2.47821 0.28816,-1.066207 0.95094,-1.757801 0.66277,-0.691593 1.72898,-1.008574 1.06621,-0.345796 2.62229,-0.345796 h 3.77495 q 1.18147,0 2.01715,0.172898 0.86449,0.172898 1.44082,0.518695 0.60514,0.316981 0.95094,0.835676 0.37461,0.518695 0.60514,1.210289 0.40343,-1.383188 1.52727,-2.045965 1.15266,-0.691593 3.45797,-0.691593 h 3.89022 q 1.55608,0 2.62229,0.345796 1.06621,0.316981 1.72898,1.008574 0.66278,0.691594 0.95094,1.757801 0.28817,1.03739 0.28817,2.47821 v 10.028109 z"
         style="font-size:28.8164px;font-family:Neuropolitical;-inkscape-font-specification:'Neuropolitical, Normal';fill:#000000;fill-opacity:1"
         id="path1139" />
      <path
         d="m 150.06084,106.13329 q -1.70017,0 -2.79519,-0.28817 -1.09502,-0.28816 -1.7578,-0.80685 -0.63396,-0.54752 -0.89331,-1.29674 -0.25935,-0.77805 -0.25935,-1.72899 v -1.46963 q 0,-0.979761 0.23054,-1.728987 0.25934,-0.778043 0.86449,-1.296738 0.60514,-0.547512 1.64253,-0.806859 1.06621,-0.288164 2.67993,-0.288164 h 11.55537 v -0.345797 q 0,-1.498453 -0.60514,-1.988332 -0.60514,-0.518695 -2.04596,-0.518695 h -4.26483 V 90.5148 h 4.26483 q 1.87306,0 3.1698,0.345796 1.32555,0.345797 2.16123,1.066207 0.83568,0.691594 1.21029,1.786617 0.40343,1.066207 0.40343,2.56466 v 3.80376 q 0,1.70017 -0.3458,2.85283 -0.31698,1.15265 -1.15265,1.87306 -0.80686,0.72041 -2.19005,1.03739 -1.35437,0.28817 -3.42915,0.28817 z m 11.26721,-7.06002 h -11.09431 q -0.74923,0 -1.18147,0.345797 -0.43225,0.316981 -0.43225,1.239103 v 1.06621 q 0,0.83567 0.46106,1.15266 0.46107,0.31698 1.29674,0.31698 h 8.06859 q 0.74923,0 1.29674,-0.11527 0.54751,-0.11527 0.89331,-0.40343 0.3458,-0.31698 0.5187,-0.86449 0.17289,-0.54751 0.17289,-1.41201 z"
         style="font-size:28.8164px;font-family:Neuropolitical;-inkscape-font-specification:'Neuropolitical, Normal';fill:#000000;fill-opacity:1"
         id="path1141" />
      <path
         d="m 177.26351,110.80155 v -3.51561 h 5.96499 q 0.95094,0 1.35437,-0.37461 0.40343,-0.37461 0.40343,-1.29674 v -1.26792 h -9.79758 q -1.78661,0 -3.05453,-0.28816 -1.23911,-0.28817 -2.01715,-0.89331 -0.77805,-0.63396 -1.12384,-1.61372 -0.3458,-1.00857 -0.3458,-2.420577 v -2.391761 q 0,-1.786617 0.28817,-2.968089 0.31698,-1.210289 1.0662,-1.930699 0.77804,-0.72041 2.07478,-1.008574 1.32556,-0.31698 3.31389,-0.31698 h 6.97357 q 1.9307,0 3.22743,0.345796 1.32556,0.345797 2.1036,1.095024 0.80686,0.749226 1.12384,1.930698 0.3458,1.181473 0.3458,2.852824 v 9.105978 q 0,2.6223 -1.29674,3.77495 -1.29674,1.18148 -4.23601,1.18148 z m 7.72279,-13.975959 q 0,-1.556085 -0.60514,-2.103597 -0.60515,-0.547512 -2.19005,-0.547512 h -6.74304 q -1.49845,0 -2.04596,0.576328 -0.54751,0.547512 -0.54751,2.103598 v 2.045964 q 0,0.633961 0.11526,1.03739 0.14408,0.403428 0.43225,0.662778 0.31698,0.23053 0.80686,0.31698 0.48988,0.0864 1.2391,0.0864 h 9.53823 z"
         style="font-size:28.8164px;font-family:Neuropolitical;-inkscape-font-specification:'Neuropolitical, Normal';fill:#000000;fill-opacity:1"
         id="path1143" />
      <path
         d="M 192.39212,106.13329 V 90.918229 h 4.3801 v 15.215061 z m 1.46964,-16.511799 q -0.80686,0 -1.15266,-0.31698 -0.31698,-0.316981 -0.31698,-1.008574 v -1.671352 q 0,-0.691593 0.31698,-0.979757 0.3458,-0.316981 1.15266,-0.316981 h 1.412 q 0.83568,0 1.15266,0.316981 0.3458,0.288164 0.3458,0.979757 v 1.671352 q 0,0.691593 -0.3458,1.008574 -0.31698,0.31698 -1.15266,0.31698 z"
         style="font-size:28.8164px;font-family:Neuropolitical;-inkscape-font-specification:'Neuropolitical, Normal';fill:#000000;fill-opacity:1"
         id="path1145" />
      <path
         d="m 216.02158,106.13329 v -8.702554 q 0,-0.979758 -0.17289,-1.584902 -0.14409,-0.633961 -0.54752,-0.979758 -0.37461,-0.374613 -1.0662,-0.518695 -0.66278,-0.144082 -1.70017,-0.144082 h -4.66826 q -1.00857,0 -1.70016,0.144082 -0.66278,0.144082 -1.06621,0.518695 -0.40343,0.345797 -0.57633,0.979758 -0.14408,0.605144 -0.14408,1.584902 v 8.702554 h -4.29364 v -8.846636 q 0,-1.873066 0.34579,-3.169804 0.37462,-1.296738 1.23911,-2.074781 0.86449,-0.806859 2.30531,-1.152656 1.44082,-0.374613 3.60205,-0.374613 h 5.21577 q 2.19004,0 3.63086,0.374613 1.44082,0.345797 2.30532,1.152656 0.86449,0.778043 1.21029,2.074781 0.37461,1.296738 0.37461,3.169804 v 8.846636 z"
         style="font-size:28.8164px;font-family:Neuropolitical;-inkscape-font-specification:'Neuropolitical, Normal';fill:#000000;fill-opacity:1"
         id="path1147" />
      <path
         d="m 228.96013,106.13329 q -1.70017,0 -2.79519,-0.28817 -1.09503,-0.28816 -1.7578,-0.80685 -0.63397,-0.54752 -0.89331,-1.29674 -0.25935,-0.77805 -0.25935,-1.72899 v -1.46963 q 0,-0.979761 0.23053,-1.728987 0.25935,-0.778043 0.86449,-1.296738 0.60515,-0.547512 1.64254,-0.806859 1.0662,-0.288164 2.67992,-0.288164 h 11.55538 v -0.345797 q 0,-1.498453 -0.60515,-1.988332 -0.60514,-0.518695 -2.04596,-0.518695 H 233.3114 V 90.5148 h 4.26483 q 1.87307,0 3.1698,0.345796 1.32556,0.345797 2.16123,1.066207 0.83568,0.691594 1.21029,1.786617 0.40343,1.066207 0.40343,2.56466 v 3.80376 q 0,1.70017 -0.34579,2.85283 -0.31698,1.15265 -1.15266,1.87306 -0.80686,0.72041 -2.19005,1.03739 -1.35437,0.28817 -3.42915,0.28817 z m 11.26721,-7.06002 h -11.09432 q -0.74922,0 -1.18147,0.345797 -0.43224,0.316981 -0.43224,1.239103 v 1.06621 q 0,0.83567 0.46106,1.15266 0.46106,0.31698 1.29674,0.31698 h 8.06859 q 0.74923,0 1.29674,-0.11527 0.54751,-0.11527 0.89331,-0.40343 0.34579,-0.31698 0.51869,-0.86449 0.1729,-0.54751 0.1729,-1.41201 z"
         style="font-size:28.8164px;font-family:Neuropolitical;-inkscape-font-specification:'Neuropolitical, Normal';fill:#000000;fill-opacity:1"
         id="path1149" />
      <path
         d="M 248.67052,106.13329 V 94.001584 h -2.19005 V 90.5148 h 2.19005 v -4.40891 h 4.38009 v 4.40891 h 4.92761 v 3.486784 h -4.92761 v 12.131706 z"
         style="font-size:28.8164px;font-family:Neuropolitical;-inkscape-font-specification:'Neuropolitical, Normal';fill:#000000;fill-opacity:1"
         id="path1151" />
      <path
         d="M 260.05301,106.13329 V 90.918229 h 4.38009 v 15.215061 z m 1.46964,-16.511799 q -0.80686,0 -1.15266,-0.31698 -0.31698,-0.316981 -0.31698,-1.008574 v -1.671352 q 0,-0.691593 0.31698,-0.979757 0.3458,-0.316981 1.15266,-0.316981 h 1.412 q 0.83568,0 1.15266,0.316981 0.34579,0.288164 0.34579,0.979757 v 1.671352 q 0,0.691593 -0.34579,1.008574 -0.31698,0.31698 -1.15266,0.31698 z"
         style="font-size:28.8164px;font-family:Neuropolitical;-inkscape-font-specification:'Neuropolitical, Normal';fill:#000000;fill-opacity:1"
         id="path1153" />
      <path
         d="m 275.18164,106.13329 q -2.16123,0 -3.60205,-0.3458 -1.44082,-0.37461 -2.30532,-1.15265 -0.86449,-0.80686 -1.2391,-2.07479 -0.3458,-1.29673 -0.3458,-3.169799 v -2.103597 q 0,-1.873066 0.3458,-3.169804 0.37461,-1.296738 1.2391,-2.074781 0.8645,-0.806859 2.30532,-1.152656 1.44082,-0.374613 3.60205,-0.374613 h 5.21576 q 2.19005,0 3.63087,0.374613 1.44082,0.345797 2.30531,1.152656 0.86449,0.806859 1.21029,2.103597 0.37461,1.296738 0.37461,3.169804 v 2.074781 q 0,1.873069 -0.37461,3.169799 -0.3458,1.26793 -1.21029,2.07479 -0.86449,0.77804 -2.30531,1.15265 -1.44082,0.3458 -3.63087,0.3458 z m 8.4432,-8.702554 q 0,-0.979758 -0.1729,-1.613719 -0.14408,-0.633961 -0.57633,-0.979757 -0.40343,-0.374614 -1.15265,-0.489879 -0.74923,-0.144082 -1.90188,-0.144082 h -4.06312 q -1.15265,0 -1.90188,0.144082 -0.72041,0.115265 -1.15266,0.489879 -0.40342,0.345796 -0.57632,0.979757 -0.14409,0.633961 -0.14409,1.613719 v 1.844249 q 0,0.979755 0.14409,1.613715 0.1729,0.60515 0.57632,0.97976 0.43225,0.3458 1.15266,0.48988 0.74923,0.14408 1.90188,0.14408 h 4.06312 q 1.15265,0 1.90188,-0.14408 0.74922,-0.14408 1.15265,-0.48988 0.43225,-0.37461 0.57633,-0.97976 0.1729,-0.63396 0.1729,-1.613715 z"
         style="font-size:28.8164px;font-family:Neuropolitical;-inkscape-font-specification:'Neuropolitical, Normal';fill:#000000;fill-opacity:1"
         id="path1155" />
      <path
         d="m 307.02374,106.13329 v -8.702554 q 0,-0.979758 -0.1729,-1.584902 -0.14408,-0.633961 -0.54751,-0.979758 -0.37462,-0.374613 -1.06621,-0.518695 -0.66278,-0.144082 -1.70017,-0.144082 h -4.66826 q -1.00857,0 -1.70016,0.144082 -0.66278,0.144082 -1.06621,0.518695 -0.40343,0.345797 -0.57633,0.979758 -0.14408,0.605144 -0.14408,1.584902 v 8.702554 h -4.29364 v -8.846636 q 0,-1.873066 0.34579,-3.169804 0.37462,-1.296738 1.23911,-2.074781 0.86449,-0.806859 2.30531,-1.152656 1.44082,-0.374613 3.60205,-0.374613 h 5.21577 q 2.19005,0 3.63087,0.374613 1.44082,0.345797 2.30531,1.152656 0.86449,0.778043 1.21029,2.074781 0.37461,1.296738 0.37461,3.169804 v 8.846636 z"
         style="font-size:28.8164px;font-family:Neuropolitical;-inkscape-font-specification:'Neuropolitical, Normal';fill:#000000;fill-opacity:1"
         id="path1157" />
      <path
         d="M 326.07135,106.13329 V 90.918229 h 4.3801 v 15.215061 z m 1.46964,-16.511799 q -0.80686,0 -1.15266,-0.31698 -0.31698,-0.316981 -0.31698,-1.008574 v -1.671352 q 0,-0.691593 0.31698,-0.979757 0.3458,-0.316981 1.15266,-0.316981 h 1.412 q 0.83568,0 1.15266,0.316981 0.3458,0.288164 0.3458,0.979757 v 1.671352 q 0,0.691593 -0.3458,1.008574 -0.31698,0.31698 -1.15266,0.31698 z"
         style="font-size:28.8164px;font-family:Neuropolitical;-inkscape-font-specification:'Neuropolitical, Normal';fill:#000000;fill-opacity:1"
         id="path1159" />
      <path
         d="m 349.7008,106.13329 v -8.702554 q 0,-0.979758 -0.1729,-1.584902 -0.14408,-0.633961 -0.54751,-0.979758 -0.37461,-0.374613 -1.06621,-0.518695 -0.66277,-0.144082 -1.70017,-0.144082 h -4.66825 q -1.00858,0 -1.70017,0.144082 -0.66278,0.144082 -1.06621,0.518695 -0.40343,0.345797 -0.57632,0.979758 -0.14409,0.605144 -0.14409,1.584902 v 8.702554 h -4.29364 v -8.846636 q 0,-1.873066 0.3458,-3.169804 0.37461,-1.296738 1.2391,-2.074781 0.86449,-0.806859 2.30531,-1.152656 1.44082,-0.374613 3.60205,-0.374613 h 5.21577 q 2.19005,0 3.63087,0.374613 1.44082,0.345797 2.30531,1.152656 0.86449,0.778043 1.21029,2.074781 0.37461,1.296738 0.37461,3.169804 v 8.846636 z"
         style="font-size:28.8164px;font-family:Neuropolitical;-inkscape-font-specification:'Neuropolitical, Normal';fill:#000000;fill-opacity:1"
         id="path1161" />
      <path
         d="m 376.09657,106.13329 q -2.16123,0 -3.60205,-0.3458 -1.44082,-0.37461 -2.30531,-1.15265 -0.8645,-0.80686 -1.23911,-2.07479 -0.3458,-1.29673 -0.3458,-3.169799 v -6.16671 q 0,-1.844249 0.3458,-3.140988 0.37461,-1.296738 1.23911,-2.07478 0.86449,-0.80686 2.30531,-1.152656 1.44082,-0.374614 3.60205,-0.374614 h 13.63015 v 3.774949 h -13.42844 q -1.00857,0 -1.67135,0.172898 -0.63396,0.144082 -1.00857,0.518696 -0.37462,0.374613 -0.5187,1.008574 -0.14408,0.605144 -0.14408,1.498452 v 5.76328 q 0,0.922128 0.14408,1.527268 0.14408,0.60515 0.5187,0.97976 0.37461,0.37461 1.03739,0.51869 0.66277,0.14409 1.67135,0.14409 h 13.39962 v 3.74613 z"
         style="font-size:28.8164px;font-family:Neuropolitical;-inkscape-font-specification:'Neuropolitical, Normal';fill:#000000;fill-opacity:1"
         id="path1163" />
      <path
         d="m 396.75795,98.641024 q 0,1.296738 0.54751,1.815436 0.57633,0.48988 1.90188,0.48988 h 9.59586 V 90.5148 h 4.17838 v 15.33032 q 0,2.6223 -1.29674,3.77495 -1.29673,1.18148 -4.23601,1.18148 h -6.25316 v -3.51561 h 5.87855 q 0.89331,0 1.29674,-0.34579 0.43224,-0.3458 0.43224,-1.32556 v -1.26792 h -9.85521 q -1.7578,0 -2.9969,-0.31698 -1.21029,-0.3458 -1.98833,-1.03739 -0.74923,-0.69159 -1.09503,-1.72898 -0.34579,-1.03739 -0.34579,-2.449397 V 90.5148 h 4.23601 z"
         style="font-size:28.8164px;font-family:Neuropolitical;-inkscape-font-specification:'Neuropolitical, Normal';fill:#000000;fill-opacity:1"
         id="path1165" />
      <path
         d="m 423.75889,106.13329 q -2.16123,0 -3.60205,-0.3458 -1.44082,-0.37461 -2.30531,-1.15265 -0.86449,-0.80686 -1.23911,-2.07479 -0.34579,-1.29673 -0.34579,-3.169799 v -2.103597 q 0,-1.873066 0.34579,-3.169804 0.37462,-1.296738 1.23911,-2.074781 0.86449,-0.806859 2.30531,-1.152656 1.44082,-0.374613 3.60205,-0.374613 h 11.29603 v 3.688499 h -11.15195 q -1.00857,0 -1.67135,0.144082 -0.63396,0.144082 -1.00857,0.518695 -0.37462,0.345797 -0.5187,0.979758 -0.14408,0.63396 -0.14408,1.584902 v 1.844249 q 0,0.922125 0.14408,1.556085 0.14408,0.60515 0.5187,0.97976 0.37461,0.37461 1.00857,0.54751 0.66278,0.14408 1.67135,0.14408 h 11.18077 v 3.63087 z"
         style="font-size:28.8164px;font-family:Neuropolitical;-inkscape-font-specification:'Neuropolitical, Normal';fill:#000000;fill-opacity:1"
         id="path1167" />
      <path
         d="M 438.19593,106.13329 V 85.471929 h 4.38009 v 20.661361 z"
         style="font-size:28.8164px;font-family:Neuropolitical;-inkscape-font-specification:'Neuropolitical, Normal';fill:#000000;fill-opacity:1"
         id="path1169" />
      <path
         d="m 450.12591,99.908946 v 0.720414 q 0,0.72041 0.11527,1.15265 0.11526,0.43225 0.40343,0.6916 0.31698,0.23053 0.80686,0.31698 0.51869,0.0864 1.26792,0.0864 h 5.07169 v 3.25625 h -5.07169 q -3.71732,0 -5.30222,-1.41201 -1.5849,-1.412 -1.5849,-4.52417 v -3.60205 q 0,-1.700168 0.31698,-2.852824 0.3458,-1.181472 1.15266,-1.873066 0.83567,-0.72041 2.19004,-1.03739 1.35437,-0.31698 3.42915,-0.31698 h 7.5499 q 1.67135,0 2.76638,0.31698 1.12384,0.31698 1.7578,0.893308 0.66277,0.547512 0.92212,1.354371 0.25935,0.778043 0.25935,1.700168 v 5.129319 z M 461.883,95.125424 q 0,-0.778043 -0.40342,-1.037391 -0.37462,-0.259347 -1.35438,-0.259347 h -7.14646 q -0.80686,0 -1.35437,0.08645 -0.54752,0.05763 -0.89331,0.31698 -0.31698,0.259348 -0.46106,0.749227 -0.14409,0.489878 -0.14409,1.325554 v 0.835676 H 461.883 Z"
         style="font-size:28.8164px;font-family:Neuropolitical;-inkscape-font-specification:'Neuropolitical, Normal';fill:#000000;fill-opacity:1"
         id="path1171" />
      <path
         d="m 487.64487,101.98373 q 0,1.15265 -0.20172,1.95951 -0.20171,0.77804 -0.80686,1.26792 -0.57632,0.48988 -1.61371,0.72041 -1.00858,0.20172 -2.65111,0.20172 h -13.42845 v -3.37152 h 12.88094 q 0.86449,0 1.21028,-0.28816 0.3458,-0.28817 0.3458,-1.09503 v -0.51869 q 0,-0.864495 -0.3458,-1.06621 -0.31698,-0.230531 -1.09502,-0.230531 h -8.76018 q -1.32556,0 -2.16123,-0.259347 -0.80686,-0.259348 -1.26793,-0.778043 -0.46106,-0.518695 -0.63396,-1.267922 -0.14408,-0.778043 -0.14408,-1.815433 v -1.181472 q 0,-1.008574 0.20172,-1.728984 0.23053,-0.72041 0.72041,-1.152656 0.48987,-0.461063 1.32555,-0.662778 0.83568,-0.201714 2.1036,-0.201714 h 5.93618 v 3.256253 h -4.89879 q -0.63396,0 -0.92213,0.230531 -0.25934,0.230531 -0.25934,0.835676 v 0.72041 q 0,0.662777 0.25934,0.893308 0.25935,0.230531 0.83568,0.230531 h 8.47202 q 1.49845,0 2.44939,0.259348 0.95095,0.230531 1.49846,0.778043 0.54751,0.518695 0.74922,1.383187 0.20172,0.835675 0.20172,2.074783 z"
         style="font-size:28.8164px;font-family:Neuropolitical;-inkscape-font-specification:'Neuropolitical, Normal';fill:#000000;fill-opacity:1"
         id="path1173" />
      <path
         d="m 509.31477,106.13329 q -2.16123,0 -3.60205,-0.3458 -1.44082,-0.37461 -2.30531,-1.15265 -0.8645,-0.80686 -1.23911,-2.07479 -0.3458,-1.29673 -0.3458,-3.169799 v -6.16671 q 0,-1.844249 0.3458,-3.140988 0.37461,-1.296738 1.23911,-2.07478 0.86449,-0.80686 2.30531,-1.152656 1.44082,-0.374614 3.60205,-0.374614 h 4.84115 v 3.717316 h -4.84115 q -0.95094,0 -1.55609,0.172899 -0.60514,0.144082 -0.97976,0.489878 -0.34579,0.345797 -0.48987,0.922125 -0.11527,0.576328 -0.11527,1.44082 v 1.325555 h 16.74233 v 3.486784 h -16.74233 v 1.383187 q 0,0.893313 0.11527,1.469633 0.14408,0.57633 0.48987,0.92213 0.3458,0.3458 0.95095,0.48988 0.63396,0.11526 1.5849,0.11526 h 13.7166 v 3.71732 z"
         style="font-size:28.8164px;font-family:Neuropolitical;-inkscape-font-specification:'Neuropolitical, Normal';fill:#000000;fill-opacity:1"
         id="path1175" />
      <path
         d="m 541.70443,106.13329 v -8.702554 q 0,-0.979758 -0.1729,-1.584902 -0.14408,-0.633961 -0.54751,-0.979758 -0.37461,-0.374613 -1.06621,-0.518695 -0.66277,-0.144082 -1.70016,-0.144082 h -4.66826 q -1.00857,0 -1.70017,0.144082 -0.66278,0.144082 -1.0662,0.518695 -0.40343,0.345797 -0.57633,0.979758 -0.14408,0.605144 -0.14408,1.584902 v 8.702554 h -4.29365 v -8.846636 q 0,-1.873066 0.3458,-3.169804 0.37461,-1.296738 1.2391,-2.074781 0.8645,-0.806859 2.30532,-1.152656 Q 531.1,90.5148 533.26123,90.5148 h 5.21576 q 2.19005,0 3.63087,0.374613 1.44082,0.345797 2.30531,1.152656 0.86449,0.778043 1.21029,2.074781 0.37461,1.296738 0.37461,3.169804 v 8.846636 z"
         style="font-size:28.8164px;font-family:Neuropolitical;-inkscape-font-specification:'Neuropolitical, Normal';fill:#000000;fill-opacity:1"
         id="path1177" />
      <path
         d="m 557.6975,110.80155 v -3.51561 h 5.96499 q 0.95094,0 1.35437,-0.37461 0.40343,-0.37461 0.40343,-1.29674 v -1.26792 h -9.79758 q -1.78661,0 -3.05453,-0.28816 -1.23911,-0.28817 -2.01715,-0.89331 -0.77804,-0.63396 -1.12384,-1.61372 -0.3458,-1.00857 -0.3458,-2.420577 v -2.391761 q 0,-1.786617 0.28817,-2.968089 0.31698,-1.210289 1.0662,-1.930699 0.77805,-0.72041 2.07478,-1.008574 1.32556,-0.31698 3.31389,-0.31698 h 6.97357 q 1.9307,0 3.22744,0.345796 1.32555,0.345797 2.10359,1.095024 0.80686,0.749226 1.12384,1.930698 0.3458,1.181473 0.3458,2.852824 v 9.105978 q 0,2.6223 -1.29674,3.77495 -1.29674,1.18148 -4.23601,1.18148 z m 7.72279,-13.975959 q 0,-1.556085 -0.60514,-2.103597 -0.60515,-0.547512 -2.19005,-0.547512 h -6.74304 q -1.49845,0 -2.04596,0.576328 -0.54751,0.547512 -0.54751,2.103598 v 2.045964 q 0,0.633961 0.11526,1.03739 0.14408,0.403428 0.43225,0.662778 0.31698,0.23053 0.80686,0.31698 0.48988,0.0864 1.2391,0.0864 h 9.53823 z"
         style="font-size:28.8164px;font-family:Neuropolitical;-inkscape-font-specification:'Neuropolitical, Normal';fill:#000000;fill-opacity:1"
         id="path1179" />
      <path
         d="M 572.82608,106.13329 V 90.918229 h 4.3801 v 15.215061 z m 1.46964,-16.511799 q -0.80686,0 -1.15266,-0.31698 -0.31698,-0.316981 -0.31698,-1.008574 v -1.671352 q 0,-0.691593 0.31698,-0.979757 0.3458,-0.316981 1.15266,-0.316981 h 1.412 q 0.83568,0 1.15266,0.316981 0.3458,0.288164 0.3458,0.979757 v 1.671352 q 0,0.691593 -0.3458,1.008574 -0.31698,0.31698 -1.15266,0.31698 z"
         style="font-size:28.8164px;font-family:Neuropolitical;-inkscape-font-specification:'Neuropolitical, Normal';fill:#000000;fill-opacity:1"
         id="path1181" />
      <path
         d="m 596.45556,106.13329 v -8.702554 q 0,-0.979758 -0.1729,-1.584902 -0.14408,-0.633961 -0.54751,-0.979758 -0.37461,-0.374613 -1.06621,-0.518695 -0.66277,-0.144082 -1.70016,-0.144082 h -4.66826 q -1.00858,0 -1.70017,0.144082 -0.66278,0.144082 -1.06621,0.518695 -0.40343,0.345797 -0.57632,0.979758 -0.14409,0.605144 -0.14409,1.584902 v 8.702554 h -4.29364 v -8.846636 q 0,-1.873066 0.3458,-3.169804 0.37461,-1.296738 1.2391,-2.074781 0.86449,-0.806859 2.30531,-1.152656 1.44082,-0.374613 3.60205,-0.374613 h 5.21577 q 2.19005,0 3.63087,0.374613 1.44082,0.345797 2.30531,1.152656 0.86449,0.778043 1.21029,2.074781 0.37461,1.296738 0.37461,3.169804 v 8.846636 z"
         style="font-size:28.8164px;font-family:Neuropolitical;-inkscape-font-specification:'Neuropolitical, Normal';fill:#000000;fill-opacity:1"
         id="path1183" />
      <path
         d="m 608.21264,99.908946 v 0.720414 q 0,0.72041 0.11527,1.15265 0.11527,0.43225 0.40343,0.6916 0.31698,0.23053 0.80686,0.31698 0.51869,0.0864 1.26792,0.0864 h 5.07169 v 3.25625 h -5.07169 q -3.71732,0 -5.30222,-1.41201 -1.5849,-1.412 -1.5849,-4.52417 v -3.60205 q 0,-1.700168 0.31698,-2.852824 0.3458,-1.181472 1.15266,-1.873066 0.83567,-0.72041 2.19004,-1.03739 1.35437,-0.31698 3.42916,-0.31698 h 7.54989 q 1.67135,0 2.76638,0.31698 1.12384,0.31698 1.7578,0.893308 0.66277,0.547512 0.92212,1.354371 0.25935,0.778043 0.25935,1.700168 v 5.129319 z m 11.7571,-4.783522 q 0,-0.778043 -0.40343,-1.037391 -0.37462,-0.259347 -1.35437,-0.259347 h -7.14647 q -0.80686,0 -1.35437,0.08645 -0.54751,0.05763 -0.89331,0.31698 -0.31698,0.259348 -0.46106,0.749227 -0.14409,0.489878 -0.14409,1.325554 v 0.835676 h 11.7571 z"
         style="font-size:28.8164px;font-family:Neuropolitical;-inkscape-font-specification:'Neuropolitical, Normal';fill:#000000;fill-opacity:1"
         id="path1185" />
    </g>
    <rect
       style="fill:#000000;fill-opacity:1;fill-rule:evenodd;stroke:#ffffff;stroke-width:2.06087;stroke-linecap:round;stroke-linejoin:round;paint-order:markers stroke fill"
       id="rect1105"
       width="26.913885"
       height="8.0444164"
       x="145.47955"
       y="20.39604"
       rx="1.0351508"
       ry="1.3801695"
       transform="matrix(1,0,-0.3361687,0.94180179,0,0)"
       inkscape:transform-center-x="-0.24363263"
       inkscape:transform-center-y="-0.16836344" />
  </g>
</svg>
