<?xml version="1.0" encoding="UTF-8" standalone="no"?>
<!-- Created with Inkscape (http://www.inkscape.org/) -->

<svg
   width="850mm"
   height="687mm"
   viewBox="0 0 850 687"
   version="1.1"
   id="svg5"
   xml:space="preserve"
   inkscape:version="1.2.2 (732a01da63, 2022-12-09)"
   sodipodi:docname="Trumpet.svg"
   xmlns:inkscape="http://www.inkscape.org/namespaces/inkscape"
   xmlns:sodipodi="http://sodipodi.sourceforge.net/DTD/sodipodi-0.dtd"
   xmlns="http://www.w3.org/2000/svg"
   xmlns:svg="http://www.w3.org/2000/svg"><sodipodi:namedview
     id="namedview7"
     pagecolor="#ffffff"
     bordercolor="#000000"
     borderopacity="0.25"
     inkscape:showpageshadow="2"
     inkscape:pageopacity="0.0"
     inkscape:pagecheckerboard="0"
     inkscape:deskcolor="#d1d1d1"
     inkscape:document-units="mm"
     showgrid="false"
     inkscape:lockguides="true"
     showguides="false"
     inkscape:zoom="0.19531951"
     inkscape:cx="1487.3066"
     inkscape:cy="1446.3481"
     inkscape:window-width="1559"
     inkscape:window-height="852"
     inkscape:window-x="78"
     inkscape:window-y="93"
     inkscape:window-maximized="0"
     inkscape:current-layer="layer1" /><defs
     id="defs2" /><g
     inkscape:label="Слой 1"
     inkscape:groupmode="layer"
     id="layer1"><path
       style="fill:#000000;stroke-width:0.937513"
       id="path361"
       d="" /><path
       id="path446"
       style="fill:#000000;stroke-width:0.994661"
       d="m 125.80056,587.12175 -12.54886,-11.67253 4.32873,-3.71752 c 6.59736,-5.66584 8.34764,-6.41526 10.33697,-4.42593 1.54847,1.54846 2.0189,1.35093 7.07964,-2.97259 l 5.42092,-4.63126 2.37974,2.23564 2.37972,2.23563 18.44905,-15.14545 c 10.14696,-8.33 19.01096,-16.19607 19.69773,-17.48018 0.68678,-1.28413 12.88623,-11.81294 27.10991,-23.39741 14.22366,-11.58447 31.9038,-26.06754 39.28916,-32.18461 7.38538,-6.11707 27.7511,-22.69149 45.25715,-36.832 17.50607,-14.14051 32.19827,-26.03201 32.64935,-26.42555 0.45109,-0.39355 -1.33932,-2.7889 -3.97864,-5.32302 l -4.79881,-4.60745 3.47665,-2.90214 3.47665,-2.9021 -2.48199,-2.66166 c -1.36509,-1.46394 -4.63503,-4.47137 -7.26652,-6.68322 l -4.78456,-4.02159 -2.88381,2.1321 c -3.39338,2.50884 -5.24724,2.68339 -6.9325,0.65275 -1.85692,-2.23748 -0.7846,-3.79834 7.14195,-10.3958 5.26769,-4.38442 7.95508,-5.97953 9.7568,-5.79129 3.52456,0.36827 3.79236,3.90573 0.52505,6.93536 l -2.57287,2.3857 7.3233,6.58035 7.3233,6.58032 2.90124,-2.37189 c 1.59569,-1.30452 3.47073,-2.38797 4.16678,-2.40763 0.69607,-0.0198 3.24942,1.79289 5.67418,4.02792 l 4.40858,4.06372 3.52648,-2.68977 c 1.93956,-1.47938 3.53011,-2.97233 3.53456,-3.3177 0.004,-0.34539 -2.12165,-2.53189 -4.72463,-4.85893 l -4.73275,-4.23095 3.44727,-2.98328 3.44727,-2.9833 -5.90569,-5.96796 c -6.69814,-6.76877 -8.83484,-7.8159 -11.33376,-5.55441 -1.95273,1.7672 -6.60966,2.12309 -7.56451,0.57808 -1.25214,-2.02599 0.75099,-4.59748 7.9902,-10.25732 5.05115,-3.94915 8.12183,-5.68861 9.65728,-5.47064 3.17486,0.4507 3.36809,3.86683 0.37763,6.67621 l -2.45371,2.30514 6.5095,6.11306 c 3.58023,3.3622 6.89053,6.25788 7.35621,6.43483 0.46569,0.17695 2.38634,-0.8526 4.26809,-2.28788 l 3.4214,-2.60961 5.19534,4.61421 5.1954,4.61424 2.10529,-2.14916 2.10531,-2.14914 -4.87598,-4.45441 -4.87597,-4.4544 3.38398,-2.86048 3.38397,-2.86047 -5.93973,-6.04454 c -7.00424,-7.12781 -8.63798,-7.8381 -11.98067,-5.20872 -2.69546,2.12024 -5.96281,1.87127 -6.88212,-0.52444 -0.60658,-1.58069 2.46014,-4.84309 10.71791,-11.40191 5.01473,-3.98298 7.39219,-4.64745 9.40972,-2.62994 1.76476,1.76479 1.49913,2.61783 -1.73654,5.57645 l -2.93012,2.67925 7.30112,6.68871 7.30112,6.6887 3.76608,-2.9929 3.76611,-2.9929 4.73816,4.66692 4.73818,4.66692 7.26665,-5.82895 c 14.42669,-11.57236 41.21955,-34.22702 77.39036,-65.43723 62.84344,-54.22485 122.02884,-116.03275 132.908,-138.79708 7.43575,-15.55906 9.29158,-32.0206 5.27087,-46.753546 -2.39197,-8.764899 -1.68803,-12.4276 2.70987,-14.099671 6.42076,-2.441168 24.40213,5.096366 41.60867,17.441767 44.12781,31.66097 81.25319,78.49343 70.17294,88.52092 -2.3221,2.10147 -7.60006,1.53543 -11.17536,0.95421 -3.5753,-0.58123 -10.2182,-1.91959 -21.67459,-1.90653 -21.53792,0.0244 -32.0083,2.53712 -51.69874,12.40601 -19.99468,10.02135 -52.65386,29.33048 -74.60787,44.11048 l -7.44444,5.01179 4.91072,1.25273 c 14.7467,3.76192 28.83892,15.10708 33.41578,26.90189 4.56529,11.76496 3.30323,26.44701 -3.14776,36.61919 -2.36445,3.72832 -2.88327,5.63176 -2.88327,10.57817 0,3.43977 -0.67612,7.45662 -1.57338,9.34745 -2.19533,4.62629 -7.05295,8.92362 -47.69011,42.18921 -19.67908,16.1093 -43.11935,35.32395 -52.08949,42.69928 l -16.30936,13.40964 11.12434,10.51518 c 6.11837,5.78334 11.08114,10.96276 11.0284,11.50984 -0.11422,1.18446 -16.57517,14.91994 -17.88043,14.91994 -0.49736,0 -5.81408,-4.58788 -11.81498,-10.19531 -6.00088,-5.60739 -11.32335,-10.19527 -11.82772,-10.19527 -0.50436,0 -1.65888,0.81974 -2.56563,1.82166 -1.56435,1.7286 -1.09347,2.3258 9.21474,11.6873 5.97483,5.42608 10.89953,10.40555 10.94373,11.06546 0.0613,0.91502 -17.17192,15.70942 -18.29907,15.70942 -0.12847,0 -4.81828,-4.25221 -10.42176,-9.44931 -12.8164,-11.88699 -13.18178,-12.06792 -16.99331,-8.41622 -1.63656,1.56791 -2.85651,3.1229 -2.71106,3.45553 0.14543,0.33264 5.07615,4.99222 10.95711,10.35459 5.88092,5.36237 10.6926,10.13705 10.6926,10.61039 0,0.47335 -4.0804,4.25674 -9.06757,8.40756 l -9.06753,7.54693 -2.59301,-2.30277 c -1.42616,-1.26655 -6.5794,-5.99548 -11.45164,-10.50875 -4.87226,-4.51328 -9.14298,-8.20597 -9.49042,-8.20597 -0.80508,0 -16.15469,12.58822 -33.2084,26.43246 -17.05371,13.84424 -29.75629,19.99116 -36.82033,20.5677 l -7.75667,-0.0774 -15.61788,12.87017 c -17.8721,14.72781 -27.04306,19.86856 -38.8808,21.79449 -17.41126,2.83268 -35.86381,-2.97935 -47.20346,-14.86777 -9.64122,-10.10782 -13.62679,-21.74699 -11.64999,-34.02179 0.55116,-3.42252 0.82553,-6.39937 0.60968,-6.61523 -0.21586,-0.21582 -6.94492,5.01723 -14.95347,11.629 -8.00857,6.61181 -15.25003,12.02149 -16.09211,12.02149 -1.62076,0 -38.13913,29.50996 -38.13913,30.81967 0,0.42179 0.9591,1.4037 2.13128,2.182 2.08734,1.38594 2.015,1.51447 -3.50659,6.23172 -5.46433,4.66834 -5.5839,4.87625 -3.88393,6.75468 1.69682,1.87496 1.60856,2.06538 -2.71004,5.84721 -7.82507,6.85244 -6.50374,7.22447 -20.46583,-5.76257 z m 156.56259,-23.71878 c 8.93553,-2.03233 13.49075,-4.83111 30.43799,-18.70131 l 14.37457,-11.76466 -3.35408,-4.39406 c -5.36801,-7.0325 -5.8513,-17.00237 -1.16806,-24.09798 1.19168,-1.80558 6.4189,-6.70704 11.61601,-10.89216 20.56221,-16.5582 42.7705,-35.23885 42.7705,-35.9767 0,-0.67026 -10.56216,-10.7923 -29.4023,-28.17713 l -5.03307,-4.64426 -34.18051,28.05862 c -18.79929,15.43223 -41.81868,34.325 -51.15422,41.98389 -15.76844,12.93648 -17.22073,14.41075 -20.45307,20.76194 -3.08514,6.06201 -3.47687,7.69618 -3.45729,14.42259 0.0177,6.03876 0.54427,8.70176 2.58234,13.05662 4.62507,9.88262 13.64083,16.92138 25.71726,20.07797 8.15592,2.13181 12.33676,2.1897 20.70393,0.28663 z m 121.10091,-81.90008 -62.0908,47.52806 2.3393,2.0021 61.79638,-47.50747 z m -59.35784,37.28785 c 20.79136,-16.91388 46.95754,-38.29996 49.8173,-40.71651 l 3.31079,-2.79776 -4.87514,-4.36899 c -2.68132,-2.40296 -5.21969,-4.38903 -5.64079,-4.41357 -1.44145,-0.0839 -50.46747,40.16748 -53.16316,43.64808 -2.71499,3.50553 -0.54217,13.99778 2.89877,13.99778 0.59229,0 4.03582,-2.40705 7.65223,-5.34903 z m 81.83324,-57.49812 c -2.9099,2.71421 0.3632,5.3084 2.69057,3.44348 3.34637,-2.6815 -0.57242,-5.41921 -2.69057,-3.44348 z m -5.20787,-5.3779 c 1.68461,-1.41752 2.8366,-2.94359 2.55993,-3.39124 -0.27666,-0.44764 -2.6295,-2.59429 -5.22857,-4.77035 l -4.72554,-3.95644 -3.43764,2.86987 -3.4376,2.86984 4.39462,4.47783 c 2.41707,2.46279 4.9385,4.47781 5.60322,4.47781 0.66474,0 2.58693,-1.15979 4.27158,-2.57732 z m 30.33078,-15.11189 c -2.7045,2.37122 0.65947,5.30772 3.36374,3.21042 2.70428,-2.0973 -0.65925,-5.58162 -3.36374,-3.21042 z m -48.50803,-3.48122 2.13969,-1.86887 -13.57831,-12.69622 c -7.46808,-6.98293 -15.45531,-14.36105 -17.7494,-16.39585 l -4.17106,-3.69957 -3.5521,3.29755 -3.5521,3.2976 17.60489,16.13256 c 18.84668,17.27056 17.5326,16.5846 22.85839,11.9328 z m 43.61479,-2.30815 c 1.93282,-1.48919 1.83683,-1.67393 -3.38105,-6.50631 l -5.37037,-4.9736 -2.05492,2.05494 -2.05496,2.05493 4.39974,4.48303 c 4.81942,4.91062 5.52337,5.1508 8.46156,2.88701 z m 29.34253,-10.72172 1.73335,2.10192 114.46053,-97.10044 -1.37903,-1.39093 z m -46.96108,-8.63848 c -0.15688,-0.43233 -8.08864,-7.93808 -17.62596,-16.67949 -17.10235,-15.67508 -17.37176,-15.87077 -19.61084,-14.24409 -1.24867,0.90713 -2.17356,1.9073 -2.05535,2.22262 0.11829,0.31529 8.03094,7.76066 17.58383,16.54527 16.9422,15.57958 17.42575,15.93477 19.68131,14.45688 1.27185,-0.83335 2.18399,-1.86887 2.02701,-2.30119 z m 55.8459,-11.86766 c 8.35926,-6.8383 20.8744,-17.13306 27.81146,-22.87724 6.93704,-5.74418 26.57311,-21.85592 43.63568,-35.8039 30.57386,-24.9929 30.99529,-25.38754 29.11633,-27.2665 -2.13074,-2.13073 -11.03112,-3.29576 -14.62113,-1.91386 -1.89616,0.72988 -19.10483,14.59494 -61.95006,49.91331 -27.23092,22.44712 -49.23389,40.4704 -50.22883,41.14393 -1.44225,0.97633 8.38379,10.85479 9.88641,9.93917 0.63332,-0.38588 7.99089,-6.2966 16.35014,-13.13491 z m 5.03272,-37.61175 c 21.6133,-17.72279 46.15004,-37.88317 54.52611,-44.80087 17.09557,-14.11906 21.83202,-16.96744 29.53701,-17.76266 5.86812,-0.60563 13.85712,1.45654 18.52813,4.78257 1.46325,1.04194 2.87194,1.89443 3.13044,1.89443 0.25847,0 1.49799,-2.34989 2.75447,-5.22197 4.49425,-10.27294 2.26875,-23.19829 -5.59574,-32.49939 -4.57149,-5.40656 -13.62623,-10.69356 -21.30566,-12.4402 -12.00985,-2.73161 -13.21157,-2.45622 -24.94128,5.7154 -40.67876,28.33923 -132.2201,98.43872 -132.2201,101.24998 0,1.50052 34.31645,32.52548 35.30225,31.91622 0.54311,-0.33566 18.67108,-15.11074 40.28437,-32.83351 z"
       sodipodi:nodetypes="ccssscccssssssscccsscssssscccssscscscccsssssscssscccccccccsssssscccccccssssssssssscssssssscssssssssssssssscssszccssssssssssssscsscssssscssssssscccccsscssssssssssscccssszzzscsscccsssscccsscccccssssssssssssssssssssssssssss" /></g></svg>
