<?xml version="1.0" encoding="UTF-8" standalone="no"?>
<!DOCTYPE svg PUBLIC "-//W3C//DTD SVG 1.1//EN" "http://www.w3.org/Graphics/SVG/1.1/DTD/svg11.dtd">
<svg width="100%" height="100%" viewBox="0 0 2410 1948" version="1.1" xmlns="http://www.w3.org/2000/svg" xmlns:xlink="http://www.w3.org/1999/xlink" xml:space="preserve" xmlns:serif="http://www.serif.com/" style="fill-rule:evenodd;clip-rule:evenodd;stroke-linejoin:round;stroke-miterlimit:2;">
    <g id="Слой-1" serif:id="Слой 1">
        <path id="path446" d="M356.6,1664.28L321.028,1631.19L333.299,1620.66C352,1604.6 356.961,1602.47 362.601,1608.11C366.99,1612.5 368.323,1611.94 382.669,1599.68L398.035,1586.56L404.781,1592.89L411.527,1599.23L463.823,1556.3C492.586,1532.69 517.712,1510.39 519.659,1506.75C521.606,1503.11 556.187,1473.26 596.506,1440.43C636.825,1407.59 686.942,1366.53 707.877,1349.19C728.812,1331.85 786.542,1284.87 836.165,1244.79C885.788,1204.7 927.436,1171 928.714,1169.88C929.993,1168.77 924.918,1161.98 917.436,1154.79L903.833,1141.73L913.688,1133.51L923.543,1125.28L916.508,1117.73C912.638,1113.58 903.369,1105.06 895.91,1098.79L882.347,1087.39L874.173,1093.43C864.554,1100.55 859.299,1101.04 854.522,1095.28C849.258,1088.94 852.298,1084.52 874.767,1065.82C889.699,1053.39 897.316,1048.87 902.424,1049.4C912.414,1050.44 913.174,1060.47 903.912,1069.06L896.619,1075.82L917.378,1094.47L938.137,1113.13L946.361,1106.4C950.884,1102.7 956.199,1099.63 958.172,1099.58C960.145,1099.52 967.383,1104.66 974.256,1111L986.753,1122.52L996.749,1114.89C1002.25,1110.7 1006.76,1106.46 1006.77,1105.49C1006.78,1104.51 1000.75,1098.31 993.376,1091.71L979.96,1079.72L989.732,1071.26L999.504,1062.81L982.763,1045.89C963.776,1026.7 957.72,1023.73 950.636,1030.14C945.101,1035.15 931.9,1036.16 929.193,1031.78C925.644,1026.04 931.322,1018.75 951.843,1002.71C966.161,991.513 974.865,986.582 979.218,987.2C988.217,988.478 988.765,998.161 980.288,1006.12L973.333,1012.66L991.785,1029.99C1001.93,1039.52 1011.32,1047.73 1012.64,1048.23C1013.96,1048.73 1019.4,1045.81 1024.74,1041.74L1034.43,1034.35L1049.16,1047.42L1063.89,1060.51L1069.86,1054.41L1075.82,1048.32L1062,1035.69L1048.18,1023.07L1057.77,1014.96L1067.37,1006.85L1050.53,989.716C1030.67,969.511 1026.04,967.498 1016.57,974.951C1008.93,980.961 999.665,980.256 997.059,973.465C995.339,968.984 1004.03,959.736 1027.44,941.144C1041.65,929.854 1048.39,927.97 1054.11,933.689C1059.12,938.692 1058.36,941.11 1049.19,949.497L1040.88,957.091L1061.58,976.051L1082.28,995.011L1092.95,986.528L1103.63,978.044L1117.06,991.273L1130.49,1004.5L1151.09,987.979C1191.98,955.175 1267.93,890.958 1370.46,802.488C1548.6,648.779 1668,523.417 1706.17,443.54C1732.26,388.946 1738.78,298.292 1724.67,246.597C1716.27,215.842 1718.74,202.99 1734.17,197.123C1756.7,188.558 1819.8,215.006 1880.17,258.324C1921.98,288.317 1961.99,322.191 1997.37,356.356C2093.02,448.735 2154.78,543.244 2126.4,568.93C2118.25,576.303 2099.73,574.317 2087.19,572.278C2074.64,570.238 2058.99,567.456 2007.31,563.674C1931.93,558.159 1893.67,563.357 1841.09,581.848C1779.13,603.639 1697.77,652.525 1635.54,694.421L1614.44,708.628L1628.36,712.179C1670.16,722.843 1710.11,755.002 1723.08,788.436C1736.02,821.786 1732.44,863.404 1714.16,892.239C1707.46,902.807 1705.99,908.203 1705.99,922.224C1705.99,931.975 1704.07,943.361 1701.53,948.721C1695.3,961.835 1681.53,974.016 1566.34,1068.31C1510.56,1113.98 1444.11,1168.44 1418.69,1189.35L1372.45,1227.36L1403.99,1257.17C1421.33,1273.56 1435.4,1288.24 1435.25,1289.79C1434.93,1293.15 1388.27,1332.09 1384.57,1332.09C1383.15,1332.09 1368.08,1319.08 1351.07,1303.19C1334.06,1287.29 1318.98,1274.29 1317.55,1274.29C1316.12,1274.29 1312.84,1276.61 1310.27,1279.45C1305.84,1284.35 1307.17,1286.04 1336.39,1312.58C1353.33,1327.96 1367.29,1342.08 1367.42,1343.95C1367.59,1346.54 1318.74,1388.48 1315.54,1388.48C1315.18,1388.48 1301.89,1376.42 1286,1361.69C1249.67,1328 1248.64,1327.48 1237.83,1337.84C1233.19,1342.28 1229.74,1346.69 1230.15,1347.63C1230.56,1348.57 1244.54,1361.78 1261.21,1376.98C1277.88,1392.18 1291.52,1405.72 1291.52,1407.06C1291.52,1408.4 1279.95,1419.12 1265.81,1430.89L1240.11,1452.28L1232.76,1445.76C1228.72,1442.17 1214.11,1428.76 1200.3,1415.97C1186.49,1403.17 1174.38,1392.71 1173.4,1392.71C1171.11,1392.71 1127.6,1428.39 1079.26,1467.63C1030.92,1506.88 994.914,1524.3 974.89,1525.93L952.903,1525.72L908.631,1562.2C857.97,1603.95 831.974,1618.52 798.418,1623.98C749.063,1632.01 696.757,1615.53 664.613,1581.83C637.284,1553.18 625.986,1520.19 631.589,1485.39C633.152,1475.69 633.929,1467.25 633.318,1466.64C632.706,1466.03 613.631,1480.86 590.93,1499.61C568.228,1518.35 547.701,1533.68 545.314,1533.68C540.72,1533.68 437.203,1617.33 437.203,1621.05C437.203,1622.24 439.922,1625.02 443.245,1627.23C449.162,1631.16 448.957,1631.52 433.305,1644.89C417.816,1658.13 417.477,1658.72 422.295,1664.04C427.105,1669.36 426.855,1669.9 414.613,1680.62C392.432,1700.04 396.178,1701.1 356.6,1664.28L356.6,1664.28ZM800.399,1597.05C825.729,1591.29 838.641,1583.35 886.68,1544.04L927.427,1510.69L917.92,1498.23C902.703,1478.3 901.333,1450.04 914.609,1429.92C917.987,1424.81 932.804,1410.91 947.536,1399.05C1005.82,1352.11 1068.78,1299.16 1068.78,1297.07C1068.78,1295.17 1038.84,1266.47 985.43,1217.19L971.163,1204.03L874.273,1283.57C820.984,1327.31 755.732,1380.87 729.269,1402.58C684.571,1439.25 680.455,1443.42 671.292,1461.43C662.547,1478.61 661.436,1483.24 661.492,1502.31C661.542,1519.43 663.035,1526.98 668.812,1539.32C681.922,1567.34 707.479,1587.29 741.711,1596.24C764.83,1602.28 776.682,1602.44 800.399,1597.05ZM1143.68,1364.89L967.672,1499.62L974.303,1505.29L1149.47,1370.62L1143.68,1364.89ZM975.419,1470.59C1034.36,1422.64 1108.53,1362.02 1116.63,1355.17L1126.02,1347.24L1112.2,1334.86C1104.6,1328.04 1097.4,1322.41 1096.21,1322.35C1092.12,1322.11 953.152,1436.21 945.511,1446.07C937.815,1456.01 943.974,1485.75 953.728,1485.75C955.407,1485.75 965.168,1478.93 975.419,1470.59ZM1207.39,1307.6C1199.14,1315.3 1208.42,1322.65 1215.01,1317.36C1224.5,1309.76 1213.39,1302 1207.39,1307.6ZM1192.62,1292.36C1197.4,1288.34 1200.67,1284.01 1199.88,1282.74C1199.1,1281.48 1192.43,1275.39 1185.06,1269.22L1171.66,1258.01L1161.92,1266.14L1152.18,1274.28L1164.63,1286.97C1171.49,1293.95 1178.63,1299.66 1180.52,1299.66C1182.4,1299.66 1187.85,1296.38 1192.62,1292.36ZM1278.6,1249.52C1270.94,1256.24 1280.47,1264.57 1288.14,1258.62C1295.8,1252.67 1286.27,1242.8 1278.6,1249.52ZM1141.1,1239.65L1147.16,1234.35L1108.67,1198.37C1087.51,1178.57 1064.86,1157.66 1058.36,1151.89L1046.54,1141.4L1036.47,1150.75L1026.4,1160.1L1076.3,1205.83C1129.73,1254.78 1126,1252.84 1141.1,1239.65ZM1264.73,1233.11C1270.21,1228.89 1269.94,1228.36 1255.15,1214.67L1239.92,1200.57L1234.1,1206.39L1228.27,1212.22L1240.75,1224.92C1254.41,1238.85 1256.4,1239.53 1264.73,1233.11ZM1347.91,1202.72L1352.82,1208.67L1677.28,933.43L1673.37,929.487L1347.91,1202.72ZM1214.79,1178.23C1214.34,1177 1191.86,1155.73 1164.83,1130.95C1116.35,1086.52 1115.58,1085.96 1109.24,1090.57C1105.7,1093.14 1103.08,1095.98 1103.41,1096.87C1103.75,1097.77 1126.17,1118.87 1153.25,1143.77C1201.28,1187.93 1202.65,1188.94 1209.04,1184.75C1212.65,1182.39 1215.23,1179.45 1214.79,1178.23ZM1373.09,1144.59C1396.79,1125.2 1432.26,1096.02 1451.93,1079.74C1471.59,1063.46 1527.25,1017.79 1575.62,978.249C1662.29,907.403 1663.48,906.284 1658.15,900.958C1652.11,894.918 1626.88,891.616 1616.71,895.533C1611.33,897.602 1562.55,936.904 1441.1,1037.02C1363.91,1100.65 1301.54,1151.74 1298.72,1153.65C1294.63,1156.41 1322.49,1184.42 1326.75,1181.82C1328.54,1180.73 1349.4,1163.97 1373.09,1144.59ZM1387.36,1037.97C1448.62,987.735 1518.18,930.588 1541.92,910.979C1590.38,870.956 1603.81,862.882 1625.65,860.628C1642.28,858.911 1664.93,864.756 1678.17,874.185C1682.32,877.138 1686.31,879.555 1687.04,879.555C1687.78,879.555 1691.29,872.894 1694.85,864.752C1707.59,835.632 1701.28,798.993 1678.99,772.628C1666.03,757.302 1640.36,742.315 1618.59,737.364C1584.55,729.621 1581.14,730.402 1547.89,753.565C1432.58,833.897 1173.1,1032.6 1173.1,1040.57C1173.1,1044.83 1270.37,1132.77 1273.17,1131.04C1274.71,1130.09 1326.09,1088.21 1387.36,1037.97Z" style="fill-rule:nonzero;"/>
    </g>
</svg>
